<?xml version="1.0" standalone="no"?>
<!DOCTYPE svg PUBLIC "-//W3C//DTD SVG 20010904//EN"
 "http://www.w3.org/TR/2001/REC-SVG-20010904/DTD/svg10.dtd">
<svg version="1.0" xmlns="http://www.w3.org/2000/svg"
 width="1024.000000pt" height="1024.000000pt" viewBox="0 0 1024.000000 1024.000000"
 preserveAspectRatio="xMidYMid meet">

<g transform="translate(0.000000,1024.000000) scale(0.100000,-0.100000)"
fill="#3b82f6" stroke="none">
<path d="M5453 8353 c9 -2 23 -2 30 0 6 3 -1 5 -18 5 -16 0 -22 -2 -12 -5z"/>
<path d="M5516 8335 c10 -8 14 -15 8 -15 -5 0 -19 -6 -30 -14 -18 -14 -18 -15
6 -25 18 -7 -1 -8 -70 -3 -146 11 -512 7 -635 -7 -253 -28 -592 -110 -815
-198 -737 -289 -1342 -839 -1695 -1542 -208 -413 -309 -801 -351 -1343 -4 -60
-9 -78 -22 -82 -14 -5 -16 -16 -14 -62 4 -53 -8 -87 -25 -70 -5 4 -11 62 -14
129 -5 86 -6 61 -3 -83 12 -841 328 -1598 923 -2213 327 -337 702 -589 1122
-755 364 -143 661 -210 1034 -232 163 -10 383 -3 335 11 -14 4 -40 7 -57 8
-32 1 -48 21 -17 21 8 0 13 4 9 9 -3 5 -19 8 -35 6 -17 -2 -30 1 -30 6 0 6 -8
8 -17 5 -10 -3 -24 -2 -31 3 -7 4 54 11 140 14 249 11 421 37 697 107 223 56
401 124 630 240 607 307 1119 825 1420 1435 236 478 343 969 328 1510 -6 244
-32 431 -92 672 -50 204 -77 286 -145 451 -28 68 -45 121 -40 127 10 12 4 95
-8 107 -4 4 -13 3 -21 -1 -10 -7 -10 -13 -2 -29 7 -14 8 -23 1 -27 -5 -3 -10
-5 -10 -3 0 2 -4 18 -9 36 -6 18 -6 30 -1 27 4 -2 13 2 20 11 10 11 10 18 2
26 -14 14 -16 28 -4 28 4 0 13 -13 20 -30 8 -16 18 -30 23 -30 12 0 -36 96
-113 226 -185 312 -473 644 -755 871 -191 153 -482 335 -680 425 -172 78 -477
183 -558 192 -27 3 -42 3 -32 0 26 -8 20 -22 -8 -16 -15 2 -25 0 -25 -7 0 -6
-9 -11 -19 -11 -11 0 -23 -4 -26 -10 -3 -5 2 -10 11 -10 10 0 15 -2 13 -5 -3
-2 -35 1 -71 7 -51 8 -65 14 -63 27 1 9 10 18 21 20 21 4 72 41 58 41 -5 0
-63 9 -129 20 -66 11 -131 20 -144 20 -24 0 -24 0 -5 -15z m254 -39 c0 -3 -4
-8 -10 -11 -5 -3 -10 -1 -10 4 0 6 5 11 10 11 6 0 10 -2 10 -4z m-203 -32 c-3
-3 -12 -4 -19 -1 -8 3 -5 6 6 6 11 1 17 -2 13 -5z m-47 -69 c711 -99 1310
-395 1810 -895 418 -418 718 -968 840 -1540 58 -274 65 -341 65 -665 0 -264
-3 -318 -23 -450 -147 -961 -695 -1768 -1535 -2260 -343 -200 -718 -325 -1177
-392 -174 -25 -584 -25 -755 0 -499 74 -895 214 -1275 452 -777 487 -1299
1288 -1429 2190 -127 875 105 1732 655 2425 87 109 374 396 484 484 326 260
735 466 1132 571 182 48 321 71 603 99 91 9 496 -4 605 -19z m1990 -970 c13
-14 21 -25 18 -25 -2 0 -15 11 -28 25 -13 14 -21 25 -18 25 2 0 15 -11 28 -25z
m404 -551 c10 -39 3 -37 -22 7 -22 38 -22 40 -4 30 11 -6 23 -22 26 -37z m116
-215 c0 -14 -17 -10 -23 5 -4 10 -1 13 9 9 7 -3 14 -9 14 -14z m-6103 -1381
c-3 -8 -6 -5 -6 6 -1 11 2 17 5 13 3 -3 4 -12 1 -19z m11 -168 l-1 -75 -7 55
c-5 30 -8 75 -8 100 0 37 1 40 8 20 4 -14 8 -59 8 -100z m9 -132 c-2 -13 -4
-5 -4 17 -1 22 1 32 4 23 2 -10 2 -28 0 -40z"/>
<path d="M5315 8112 l-60 -5 100 -13 c131 -17 166 -17 163 -1 -5 22 -75 28
-203 19z"/>
<path d="M5555 8070 c41 -10 85 -12 85 -2 0 4 -26 7 -58 8 -43 1 -50 -1 -27
-6z"/>
<path d="M5660 8060 c-13 -8 -12 -10 3 -10 28 0 300 -69 375 -94 689 -237
1231 -660 1612 -1260 155 -245 290 -545 355 -791 15 -55 29 -106 31 -113 7
-22 22 -3 17 21 -4 18 -3 19 6 7 10 -13 11 -13 11 0 0 67 -137 444 -228 627
-306 608 -775 1078 -1384 1384 -44 22 -87 38 -95 35 -8 -3 -12 -2 -9 3 8 12
-20 22 -41 14 -10 -4 -14 -2 -10 4 8 13 -20 26 -35 16 -6 -3 -8 -2 -5 4 7 11
-199 87 -213 78 -6 -3 -10 -1 -10 5 0 7 -8 9 -21 5 -15 -5 -19 -4 -15 4 4 6 5
11 3 11 -2 0 -41 11 -88 26 -91 27 -209 39 -209 21 0 -7 -4 -7 -12 1 -14 14
-19 15 -38 2z"/>
<path d="M6151 7544 c-55 -43 -69 -59 -59 -66 9 -7 8 -8 -5 -4 -13 4 -50 -18
-125 -76 -128 -100 -146 -115 -108 -93 30 18 86 37 86 29 0 -3 -13 -10 -30
-15 -26 -10 -49 -43 -37 -55 2 -2 31 -8 63 -12 51 -7 59 -10 57 -28 -3 -33
-65 -157 -73 -145 -4 7 -14 -5 -25 -29 -10 -23 -24 -39 -30 -36 -7 2 -18 -7
-24 -21 -10 -22 -9 -25 4 -19 13 5 15 1 9 -16 -5 -16 -3 -20 9 -15 22 8 13
-13 -79 -196 -273 -541 -725 -1135 -1129 -1484 -144 -125 -202 -164 -232 -157
-25 7 -123 -49 -123 -70 0 -7 4 -6 9 3 6 9 11 10 15 2 7 -11 -104 -71 -131
-71 -12 0 -17 13 -14 34 1 5 -6 5 -16 1 -118 -48 -301 -91 -336 -80 -7 2 -37
6 -68 8 -30 2 -69 12 -85 23 l-29 18 18 -21 c10 -11 50 -36 90 -54 71 -33 75
-34 202 -33 144 0 204 12 343 70 349 144 735 480 1113 969 171 221 267 365
402 602 91 159 259 492 296 585 13 31 29 59 37 62 7 3 26 -6 41 -19 16 -13 23
-25 17 -25 -5 0 -20 9 -32 20 -18 17 -22 18 -22 5 0 -8 5 -15 10 -15 6 0 10
-7 10 -16 0 -9 6 -14 13 -11 8 3 20 1 28 -5 11 -8 9 -8 -6 -4 -12 4 -5 -7 20
-29 22 -19 43 -35 48 -35 13 0 7 18 -8 24 -8 3 -15 11 -15 18 0 9 3 9 10 -2 5
-8 12 -11 16 -7 4 3 2 12 -4 19 -6 7 -10 15 -11 18 0 3 -3 13 -7 23 -5 13 -9
15 -14 7 -10 -15 -34 233 -25 259 3 12 11 21 16 21 6 0 7 -4 4 -10 -3 -5 -1
-18 5 -27 8 -14 9 8 5 84 -4 56 -10 114 -13 128 l-7 26 -74 -57z m-239 -506
c-7 -7 -12 -8 -12 -2 0 14 12 26 19 19 2 -3 -1 -11 -7 -17z"/>
<path d="M4718 7175 c-274 -38 -476 -144 -576 -303 -48 -76 -49 -88 -6 -102
41 -14 37 -17 84 61 59 97 198 176 380 216 105 22 416 25 524 5 223 -42 356
-187 356 -387 0 -193 -112 -367 -299 -464 -95 -49 -162 -68 -272 -77 -79 -6
-88 -8 -98 -31 -13 -28 -7 -43 17 -43 38 -1 51 -26 67 -121 18 -110 44 -252
48 -255 2 -2 152 183 188 231 5 6 2 49 -5 95 -14 87 -12 99 23 100 8 0 51 10
95 23 l80 22 94 145 c194 297 322 512 322 542 0 31 -61 134 -102 175 -92 89
-255 153 -438 173 -129 13 -364 11 -482 -5z"/>
<path d="M3440 7087 c-1 -21 57 -115 98 -159 102 -109 228 -173 547 -277 280
-91 384 -141 470 -225 86 -84 119 -154 120 -251 0 -38 -4 -86 -8 -105 -5 -22
-5 -30 1 -20 22 35 35 155 23 211 -42 199 -210 326 -577 433 -284 83 -462 166
-565 263 -39 37 -79 83 -89 102 -11 20 -19 32 -20 28z"/>
<path d="M5876 7063 c-6 -14 -5 -15 5 -6 7 7 10 15 7 18 -3 3 -9 -2 -12 -12z"/>
<path d="M4587 6802 c-13 -29 -10 -31 52 -39 86 -10 99 -48 57 -171 l-25 -72
34 -51 c88 -130 87 -306 -5 -459 -21 -36 -54 -80 -73 -98 l-34 -33 -11 43
c-12 48 -51 92 -77 86 -12 -2 -33 -48 -70 -148 -98 -270 -147 -395 -166 -426
-21 -35 -81 -64 -130 -64 -44 0 -69 -17 -69 -46 0 -25 2 -26 38 -19 20 4 126
8 235 10 l199 3 28 27 29 28 -24 29 c-29 34 -30 40 -11 99 62 188 199 576 276
779 50 135 116 313 145 395 l53 151 -220 -1 c-219 0 -221 0 -231 -23z"/>
<path d="M3580 6721 c0 -4 14 -29 31 -54 72 -108 207 -175 469 -231 206 -44
303 -68 345 -84 68 -27 133 -71 165 -115 34 -46 40 -35 11 22 -27 52 -83 98
-159 133 -36 16 -187 60 -337 97 -307 77 -394 112 -476 192 -27 26 -49 44 -49
40z"/>
<path d="M3780 6421 c0 -7 20 -34 45 -60 78 -83 197 -122 437 -141 66 -6 139
-15 162 -21 61 -17 131 -55 155 -85 12 -15 21 -21 21 -15 0 7 -22 34 -49 61
-60 60 -125 82 -330 111 -226 31 -332 65 -405 129 -20 18 -36 27 -36 21z"/>
<path d="M5918 6275 c-125 -34 -227 -116 -280 -223 -31 -62 -33 -73 -33 -172
0 -102 1 -109 37 -181 23 -45 79 -123 142 -199 126 -150 156 -201 163 -280 12
-123 -41 -221 -149 -274 -66 -33 -180 -36 -243 -7 -103 47 -149 122 -147 240
0 42 2 85 4 96 2 14 -3 20 -16 20 -20 0 -28 -10 -48 -63 l-13 -32 -43 102
c-24 57 -53 138 -64 181 -12 43 -25 76 -29 75 -18 -7 -179 -188 -179 -201 0
-38 67 -196 112 -263 114 -171 287 -263 493 -264 153 0 279 52 386 159 39 40
77 90 95 126 27 56 29 68 29 175 0 114 -1 117 -37 190 -22 43 -78 124 -133
190 -163 197 -185 237 -185 334 0 72 38 131 111 171 46 25 65 30 124 30 86 -1
143 -27 181 -85 23 -35 27 -50 26 -110 -1 -38 2 -72 7 -75 24 -14 38 15 68
133 18 70 35 137 39 148 5 20 -2 24 -103 48 -121 29 -236 33 -315 11z"/>
<path d="M4020 6145 c7 -8 37 -27 69 -42 52 -25 67 -27 231 -33 193 -6 217
-13 264 -72 27 -35 34 -32 15 5 -39 76 -97 95 -314 106 -125 7 -172 13 -215
30 -65 25 -66 25 -50 6z"/>
<path d="M8071 5634 c0 -11 3 -14 6 -6 3 7 2 16 -1 19 -3 4 -6 -2 -5 -13z"/>
<path d="M8109 5559 c-1 -32 -2 -32 -9 -9 -7 23 -8 22 -8 -10 -1 -45 25 -214
27 -177 0 15 6 27 11 27 6 0 10 5 10 11 0 5 -4 7 -10 4 -6 -3 -10 4 -10 17 0
19 2 20 11 8 8 -11 9 -6 4 20 -3 19 -8 58 -11 85 -7 60 -14 71 -15 24z"/>
<path d="M2107 5100 c-12 -159 -11 -310 2 -410 49 -370 175 -755 355 -1076
146 -262 319 -487 539 -701 486 -471 1056 -744 1762 -845 137 -19 561 -16 710
5 66 10 136 21 155 26 l35 9 -40 2 c-40 2 -40 2 -10 11 33 9 40 10 -210 -16
-337 -35 -662 -9 -1014 81 -226 58 -386 118 -601 225 -590 294 -1068 774
-1355 1364 -100 206 -151 341 -205 543 -64 240 -95 447 -109 727 l-7 150 -7
-95z"/>
<path d="M4288 5077 c-37 -23 -67 -45 -68 -50 0 -8 41 13 51 26 3 5 12 10 20
11 30 6 69 30 69 43 0 17 5 19 -72 -30z"/>
<path d="M4250 5020 c-9 -6 -10 -10 -3 -10 6 0 15 5 18 10 8 12 4 12 -15 0z"/>
<path d="M2953 4398 c-7 -13 7 -28 25 -28 10 0 28 -7 40 -16 22 -15 22 -18 22
-277 0 -289 -2 -299 -60 -312 -17 -4 -30 -13 -30 -21 0 -12 23 -14 142 -12
100 2 143 7 145 15 3 7 -8 15 -24 19 -57 14 -63 27 -63 144 0 99 2 108 20 113
51 13 73 -5 161 -138 98 -147 107 -153 222 -154 76 -1 91 16 32 38 -50 18 -97
68 -173 184 -61 93 -64 101 -47 111 37 22 86 70 102 99 23 44 13 117 -22 163
-48 63 -85 73 -299 76 -103 2 -190 0 -193 -4z m321 -52 c71 -30 105 -121 70
-193 -27 -55 -75 -83 -140 -83 l-54 0 0 138 c0 76 3 142 7 145 11 12 82 8 117
-7z"/>
<path d="M7073 4267 c-74 -14 -136 -104 -119 -171 10 -42 63 -93 142 -136 40
-23 81 -51 89 -63 24 -35 19 -75 -15 -109 -28 -28 -35 -30 -81 -26 -58 6 -84
26 -111 86 -10 23 -23 42 -28 42 -6 0 -10 -29 -10 -64 l0 -64 48 -19 c65 -25
156 -24 207 3 77 39 106 147 57 213 -10 14 -60 51 -111 82 -102 61 -111 70
-111 115 0 50 30 79 83 79 61 0 95 -21 109 -67 17 -57 28 -46 28 26 l0 65 -47
6 c-27 3 -57 7 -68 8 -11 2 -39 -1 -62 -6z"/>
<path d="M4888 4260 c-9 -6 -24 -34 -34 -63 -19 -60 -139 -358 -160 -399 -8
-15 -26 -31 -40 -34 -50 -13 -17 -28 65 -29 89 -2 107 6 64 27 -33 17 -34 44
-4 113 l20 45 90 0 90 0 21 -57 c24 -66 23 -84 -8 -98 -43 -19 -21 -25 88 -25
61 0 110 4 110 9 0 5 -14 14 -30 21 -40 16 -77 97 -214 460 -15 37 -31 46 -58
30z m40 -215 l30 -80 -65 -3 c-36 -2 -68 0 -71 3 -7 6 24 108 45 149 8 15 18
24 23 20 4 -5 21 -45 38 -89z"/>
<path d="M5759 4213 c-1 -29 -2 -58 -3 -65 -1 -6 5 -13 12 -15 7 -3 12 4 12
15 0 11 9 31 21 46 20 25 26 27 88 24 l66 -3 0 -195 c1 -107 -2 -206 -5 -220
-4 -17 -16 -28 -38 -35 -58 -17 -33 -25 78 -25 61 0 113 0 117 -1 4 0 9 4 11
10 2 6 -6 11 -17 11 -12 0 -30 9 -41 20 -19 19 -20 33 -20 230 l0 210 64 0
c72 0 93 -13 103 -61 3 -16 12 -29 19 -29 11 0 14 17 14 68 l0 67 -240 0 -240
0 -1 -52z"/>
<path d="M6471 4253 c-63 -22 -134 -96 -156 -162 -22 -68 -17 -169 13 -227 79
-154 299 -191 429 -71 70 64 88 106 88 207 0 76 -3 91 -30 138 -30 56 -83 100
-144 120 -47 16 -147 14 -200 -5z m154 -32 c79 -36 125 -124 125 -241 0 -128
-69 -220 -165 -220 -96 0 -174 100 -183 235 -5 87 10 145 49 190 48 54 108 66
174 36z"/>
<path d="M3670 4245 c0 -8 9 -15 19 -15 11 0 27 -7 36 -17 15 -14 16 -40 13
-218 -3 -213 -7 -231 -51 -237 -12 -2 -21 -7 -20 -11 2 -5 90 -11 197 -13 210
-4 208 -4 219 52 3 18 9 43 13 58 10 42 -22 32 -46 -14 -22 -44 -60 -60 -142
-60 -74 0 -88 20 -88 125 l0 86 78 -3 c76 -3 77 -3 80 -30 2 -16 9 -28 18 -28
11 0 14 18 14 85 0 88 -8 105 -26 57 -9 -23 -19 -30 -50 -35 -22 -4 -56 -4
-77 0 l-37 6 0 93 0 94 89 0 c95 0 104 -4 116 -53 4 -15 13 -27 21 -27 10 0
14 15 14 60 l0 60 -195 0 c-167 0 -195 -2 -195 -15z"/>
<path d="M4180 4247 c0 -7 14 -18 30 -24 l30 -11 0 -217 0 -217 -30 -11 c-16
-6 -30 -17 -30 -24 0 -10 28 -13 115 -13 117 0 142 9 81 30 -19 6 -37 18 -40
26 -3 9 -6 110 -6 225 l0 209 49 0 c40 0 54 -5 80 -29 27 -25 31 -36 31 -81 0
-85 -28 -119 -97 -120 -31 0 -43 -4 -43 -15 0 -23 115 -20 160 4 104 55 104
205 0 259 -40 20 -59 22 -187 22 -110 0 -143 -3 -143 -13z"/>
<path d="M5240 4251 c0 -6 12 -16 27 -22 15 -6 31 -16 35 -22 4 -7 8 -103 8
-214 0 -215 -4 -233 -51 -233 -10 0 -19 -4 -19 -10 0 -6 43 -10 110 -10 61 0
110 4 110 8 0 4 -13 13 -29 19 -27 10 -29 15 -36 85 -9 101 -6 112 31 116 35
3 43 -4 106 -108 65 -106 83 -121 157 -127 52 -5 61 -3 61 11 0 9 -6 16 -14
16 -28 0 -176 189 -176 225 0 6 11 17 25 23 57 26 83 123 49 182 -33 56 -64
64 -236 68 -113 3 -158 1 -158 -7z m248 -32 c17 -6 38 -21 46 -34 20 -31 21
-114 1 -141 -19 -28 -65 -46 -106 -42 l-34 3 -3 107 c-2 95 -1 107 15 111 31
8 49 7 81 -4z"/>
<path d="M4980 3525 c-108 -31 -191 -100 -225 -188 -33 -87 2 -157 115 -227
104 -65 148 -106 156 -145 28 -149 -237 -203 -315 -64 -19 34 -23 51 -18 95 5
47 3 54 -12 54 -10 0 -27 -10 -39 -22 -22 -24 -82 -144 -82 -165 0 -24 51 -71
99 -92 28 -12 76 -24 108 -27 212 -22 435 138 410 294 -10 61 -46 101 -149
169 -103 68 -128 98 -128 154 0 72 108 128 195 99 49 -16 70 -52 70 -119 0
-53 9 -68 31 -53 14 8 94 169 94 188 0 7 -21 22 -47 35 -61 29 -184 36 -263
14z"/>
<path d="M5578 3495 c-29 -25 -77 -64 -105 -88 -53 -42 -66 -72 -38 -83 15 -6
135 55 213 108 35 24 42 34 36 51 -7 25 -33 57 -45 57 -5 0 -32 -20 -61 -45z"/>
<path d="M5365 3256 c-68 -32 -141 -97 -132 -119 9 -24 34 -21 69 8 30 26 48
32 48 16 0 -4 -27 -71 -60 -147 -66 -153 -76 -216 -42 -247 56 -51 198 23 303
156 42 52 49 84 22 94 -12 5 -23 -2 -37 -22 -68 -95 -146 -154 -146 -110 0 8
20 60 45 116 90 200 102 249 66 269 -32 16 -83 11 -136 -14z"/>
<path d="M5600 2791 c0 -11 25 -21 51 -21 43 0 3 -21 -101 -54 -438 -139 -955
-159 -1305 -52 -60 19 -71 13 -19 -9 306 -133 620 -158 971 -79 149 33 283 75
385 119 45 19 86 35 91 35 5 0 5 -15 1 -32 -5 -27 -4 -31 7 -21 17 14 65 101
59 106 -11 9 -140 17 -140 8z"/>
<path d="M5826 2171 c-4 -5 3 -7 14 -4 23 6 26 13 6 13 -8 0 -17 -4 -20 -9z"/>
<path d="M5752 8255 c3 -3 16 -8 28 -10 12 -2 20 -1 16 2 -4 4 -16 8 -28 10
-12 2 -19 1 -16 -2z"/>
<path d="M8049 6548 c-7 -27 -3 -44 11 -44 11 0 15 6 12 18 -4 16 -21 35 -23
26z"/>
<path d="M8180 6245 c0 -5 5 -17 10 -25 5 -8 10 -10 10 -5 0 6 -5 17 -10 25
-5 8 -10 11 -10 5z"/>
<path d="M5313 1823 c9 -2 25 -2 35 0 9 3 1 5 -18 5 -19 0 -27 -2 -17 -5z"/>
</g>
</svg>
